<svg width="16" height="16" viewBox="0 0 16 16" fill="none" xmlns="http://www.w3.org/2000/svg">
<rect x="1" y="4.08662" width="14" height="8.15748" rx="0.220472" fill="#4D4D4E"/>
<mask id="path-2-inside-1_395_8785" fill="white">
<rect x="2.21259" y="5.18898" width="11.685" height="5.95276" rx="0.220472"/>
</mask>
<rect x="2.21259" y="5.18898" width="11.685" height="5.95276" rx="0.220472" stroke="url(#paint0_linear_395_8785)" stroke-width="0.88189" mask="url(#path-2-inside-1_395_8785)"/>
<rect x="3.09448" y="9.48819" width="0.771654" height="0.771654" rx="0.220472" fill="#EBFF38"/>
<path d="M1.8819 12.2441H3.20473V13.126C3.20473 13.2478 3.10602 13.3465 2.98426 13.3465H2.10237C1.98061 13.3465 1.8819 13.2478 1.8819 13.126V12.2441Z" fill="#065EC5"/>
<rect x="2.32281" y="13.6772" width="0.440945" height="1.65354" rx="0.110236" fill="#065EC5"/>
<path d="M4.08667 12.2441H5.4095V13.126C5.4095 13.2478 5.3108 13.3465 5.18903 13.3465H4.30714C4.18538 13.3465 4.08667 13.2478 4.08667 13.126V12.2441Z" fill="#D93278"/>
<rect x="4.52759" y="13.6772" width="0.440945" height="1.65354" rx="0.110236" fill="#D93278"/>
<path d="M6.29132 12.2441H7.61416V13.126C7.61416 13.2478 7.51545 13.3465 7.39368 13.3465H6.51179C6.39003 13.3465 6.29132 13.2478 6.29132 13.126V12.2441Z" fill="#4D4D4E"/>
<rect x="6.73224" y="13.6772" width="0.440945" height="1.65354" rx="0.110236" fill="#4D4D4E"/>
<path d="M8.49609 12.2441H9.81893V13.126C9.81893 13.2478 9.72022 13.3465 9.59846 13.3465H8.71657C8.5948 13.3465 8.49609 13.2478 8.49609 13.126V12.2441Z" fill="#DC4E11"/>
<rect x="8.93701" y="13.6772" width="0.440945" height="1.65354" rx="0.110236" fill="#DC4E11"/>
<path d="M10.7007 12.2441H12.0236V13.126C12.0236 13.2478 11.9249 13.3465 11.8031 13.3465H10.9212C10.7995 13.3465 10.7007 13.2478 10.7007 13.126V12.2441Z" fill="#569A43"/>
<rect x="11.1417" y="13.6772" width="0.440945" height="1.65354" rx="0.110236" fill="#569A43"/>
<path d="M12.9055 12.2441H14.2284V13.126C14.2284 13.2478 14.1296 13.3465 14.0079 13.3465H13.126C13.0042 13.3465 12.9055 13.2478 12.9055 13.126V12.2441Z" fill="#8B43BD"/>
<rect x="13.3464" y="13.6772" width="0.440945" height="1.65354" rx="0.110236" fill="#8B43BD"/>
<path d="M14.2283 4.08662H12.9055V3.20473C12.9055 3.08296 13.0042 2.98425 13.126 2.98425H14.0079C14.1296 2.98425 14.2283 3.08296 14.2283 3.20473V4.08662Z" fill="#065EC5"/>
<rect x="13.7874" y="2.65355" width="0.440945" height="1.65354" rx="0.110236" transform="rotate(-180 13.7874 2.65355)" fill="#065EC5"/>
<path d="M12.0236 4.08662H10.7008V3.20473C10.7008 3.08296 10.7995 2.98425 10.9213 2.98425H11.8031C11.9249 2.98425 12.0236 3.08296 12.0236 3.20473V4.08662Z" fill="#D93278"/>
<rect x="11.5827" y="2.65355" width="0.440945" height="1.65354" rx="0.110236" transform="rotate(-180 11.5827 2.65355)" fill="#D93278"/>
<path d="M9.81891 4.08662H8.49607V3.20473C8.49607 3.08296 8.59478 2.98425 8.71655 2.98425H9.59844C9.7202 2.98425 9.81891 3.08296 9.81891 3.20473V4.08662Z" fill="#4D4D4E"/>
<rect x="9.37799" y="2.65355" width="0.440945" height="1.65354" rx="0.110236" transform="rotate(-180 9.37799 2.65355)" fill="#4D4D4E"/>
<path d="M7.61426 4.08662H6.29142V3.20473C6.29142 3.08296 6.39013 2.98425 6.5119 2.98425H7.39379C7.51555 2.98425 7.61426 3.08296 7.61426 3.20473V4.08662Z" fill="#DC4E11"/>
<rect x="7.17334" y="2.65355" width="0.440945" height="1.65354" rx="0.110236" transform="rotate(-180 7.17334 2.65355)" fill="#DC4E11"/>
<path d="M5.40948 4.08662H4.08665V3.20473C4.08665 3.08296 4.18536 2.98425 4.30712 2.98425H5.18901C5.31078 2.98425 5.40948 3.08296 5.40948 3.20473V4.08662Z" fill="#569A43"/>
<rect x="4.96857" y="2.65355" width="0.440945" height="1.65354" rx="0.110236" transform="rotate(-180 4.96857 2.65355)" fill="#569A43"/>
<path d="M3.20477 4.08662H1.88194V3.20473C1.88194 3.08296 1.98065 2.98425 2.10241 2.98425H2.9843C3.10606 2.98425 3.20477 3.08296 3.20477 3.20473V4.08662Z" fill="#8B43BD"/>
<rect x="2.76385" y="2.65355" width="0.440945" height="1.65354" rx="0.110236" transform="rotate(-180 2.76385 2.65355)" fill="#8B43BD"/>
<path d="M7.4 6.5H7.825V9.6H9.2V10H7.4V6.5ZM10.486 10V9.6H12.251V10H10.486ZM10.486 6.9V6.5H12.251V6.9H10.486ZM10.486 8.3V7.9H12.151V8.3H10.486ZM10.251 6.5H10.676V10H10.251V6.5Z" fill="#F1F2F4"/>
<defs>
<linearGradient id="paint0_linear_395_8785" x1="4.59226" y1="6.67152" x2="9.43501" y2="16.5529" gradientUnits="userSpaceOnUse">
<stop stop-color="#3DD6F5"/>
<stop offset="1" stop-color="#405BFF"/>
</linearGradient>
</defs>
</svg>
