<svg width="300" height="300" viewBox="0 0 300 300" fill="none" xmlns="http://www.w3.org/2000/svg">
<rect x="13" y="70.9685" width="272" height="158.488" rx="2" fill="#4D4D4E"/>
<mask id="path-2-inside-1_395_8787" fill="white">
<rect x="36.5591" y="92.3858" width="227.024" height="115.654" rx="2"/>
</mask>
<rect x="36.5591" y="92.3858" width="227.024" height="115.654" rx="2" stroke="url(#paint0_linear_395_8787)" stroke-width="17.1339" mask="url(#path-2-inside-1_395_8787)"/>
<rect x="53.6929" y="175.913" width="14.9921" height="14.9921" rx="2" fill="#EBFF38"/>
<path d="M30.1339 229.457H55.8347V248.874C55.8347 249.979 54.9393 250.874 53.8347 250.874H32.1339C31.0293 250.874 30.1339 249.979 30.1339 248.874V229.457Z" fill="#065EC5"/>
<rect x="38.7009" y="257.299" width="8.56693" height="32.126" rx="1" fill="#065EC5"/>
<path d="M72.9684 229.457H98.6692V248.874C98.6692 249.979 97.7738 250.874 96.6692 250.874H74.9684C73.8639 250.874 72.9684 249.979 72.9684 248.874V229.457Z" fill="#D93278"/>
<rect x="81.5354" y="257.299" width="8.56693" height="32.126" rx="1" fill="#D93278"/>
<path d="M115.803 229.457H141.504V248.874C141.504 249.979 140.608 250.874 139.504 250.874H117.803C116.699 250.874 115.803 249.979 115.803 248.874V229.457Z" fill="#4D4D4E"/>
<rect x="124.37" y="257.299" width="8.56693" height="32.126" rx="1" fill="#4D4D4E"/>
<path d="M158.638 229.457H184.339V248.874C184.339 249.979 183.443 250.874 182.339 250.874H160.638C159.533 250.874 158.638 249.979 158.638 248.874V229.457Z" fill="#DC4E11"/>
<rect x="167.205" y="257.299" width="8.56693" height="32.126" rx="1" fill="#DC4E11"/>
<path d="M201.472 229.457H227.173V248.874C227.173 249.979 226.278 250.874 225.173 250.874H203.472C202.368 250.874 201.472 249.979 201.472 248.874V229.457Z" fill="#569A43"/>
<rect x="210.039" y="257.299" width="8.56693" height="32.126" rx="1" fill="#569A43"/>
<path d="M244.307 229.457H270.008V248.874C270.008 249.979 269.112 250.874 268.008 250.874H246.307C245.202 250.874 244.307 249.979 244.307 248.874V229.457Z" fill="#8B43BD"/>
<rect x="252.874" y="257.299" width="8.56693" height="32.126" rx="1" fill="#8B43BD"/>
<path d="M270.008 70.9685H244.307V51.5512C244.307 50.4466 245.203 49.5512 246.307 49.5512H268.008C269.113 49.5512 270.008 50.4466 270.008 51.5512V70.9685Z" fill="#065EC5"/>
<rect x="261.441" y="43.126" width="8.56693" height="32.126" rx="1" transform="rotate(-180 261.441 43.126)" fill="#065EC5"/>
<path d="M227.173 70.9685H201.472V51.5512C201.472 50.4466 202.368 49.5512 203.472 49.5512H225.173C226.278 49.5512 227.173 50.4466 227.173 51.5512V70.9685Z" fill="#D93278"/>
<rect x="218.606" y="43.126" width="8.56693" height="32.126" rx="1" transform="rotate(-180 218.606 43.126)" fill="#D93278"/>
<path d="M184.339 70.9685H158.638V51.5512C158.638 50.4466 159.533 49.5512 160.638 49.5512H182.339C183.443 49.5512 184.339 50.4466 184.339 51.5512V70.9685Z" fill="#4D4D4E"/>
<rect x="175.772" y="43.126" width="8.56693" height="32.126" rx="1" transform="rotate(-180 175.772 43.126)" fill="#4D4D4E"/>
<path d="M141.504 70.9685H115.803V51.5512C115.803 50.4466 116.699 49.5512 117.803 49.5512H139.504C140.609 49.5512 141.504 50.4466 141.504 51.5512V70.9685Z" fill="#DC4E11"/>
<rect x="132.937" y="43.126" width="8.56693" height="32.126" rx="1" transform="rotate(-180 132.937 43.126)" fill="#DC4E11"/>
<path d="M98.6693 70.9685H72.9685V51.5512C72.9685 50.4466 73.864 49.5512 74.9685 49.5512H96.6693C97.7739 49.5512 98.6693 50.4466 98.6693 51.5512V70.9685Z" fill="#569A43"/>
<rect x="90.1024" y="43.126" width="8.56693" height="32.126" rx="1" transform="rotate(-180 90.1024 43.126)" fill="#569A43"/>
<path d="M55.8347 70.9685H30.1339L30.1339 51.5512C30.1339 50.4466 31.0293 49.5512 32.1339 49.5512H53.8347C54.9392 49.5512 55.8347 50.4466 55.8347 51.5512V70.9685Z" fill="#8B43BD"/>
<rect x="47.2677" y="43.126" width="8.56693" height="32.126" rx="1" transform="rotate(-180 47.2677 43.126)" fill="#8B43BD"/>
<path d="M155.896 125.838H162.086V170.986H182.111V176.811H155.896V125.838ZM200.84 176.811V170.986H226.545V176.811H200.84ZM200.84 131.663V125.838H226.545V131.663H200.84ZM200.84 152.053V146.227H225.088V152.053H200.84ZM197.417 125.838H203.607V176.811H197.417V125.838Z" fill="#E6E6E6"/>
<defs>
<linearGradient id="paint0_linear_395_8787" x1="82.7928" y1="121.189" x2="176.88" y2="313.17" gradientUnits="userSpaceOnUse">
<stop stop-color="#3DD6F5"/>
<stop offset="1" stop-color="#405BFF"/>
</linearGradient>
</defs>
</svg>
